<?xml version="1.0" encoding="UTF-8"?>
<svg width="400px" height="400px" viewBox="0 0 400 400" version="1.1" xmlns="http://www.w3.org/2000/svg" xmlns:xlink="http://www.w3.org/1999/xlink">
    <!-- Generator: Sketch 52.5 (67469) - http://www.bohemiancoding.com/sketch -->
    <title>alfonsio_logo_transparent@3x</title>
    <desc>Created with Sketch.</desc>
    <g id="alfonsio_logo_transparent" stroke="none" stroke-width="1" fill="none" fill-rule="evenodd">
        <g id="alfons_logo" fill="#006CA7">
            <g id="text" transform="translate(76.000000, 260.000000)">
                <path d="M231.333,45.033 C225.1645,45.033 220.4285,40.609 220.4285,33.195 C220.4285,25.7805 225.1645,21.4185 231.333,21.4185 C237.5015,21.4185 242.236,25.7805 242.236,33.195 C242.236,40.609 237.5015,45.033 231.333,45.033 Z M231.333,16.7455 C222.111,16.7455 215.008,23.101 215.008,33.195 C215.008,43.288 222.111,49.706 231.333,49.706 C240.554,49.706 247.6575,43.288 247.6575,33.195 C247.6575,23.101 240.554,16.7455 231.333,16.7455 Z" id="Fill-10"></path>
                <path d="M18.8045,37.4945 C18.8045,40.9215 16.312,42.728 13.01,42.728 C10.829,42.728 9.272,41.9185 9.272,39.7995 C9.272,37.4945 11.203,36.56 13.945,36.435 L18.8045,36.1235 L18.8045,37.4945 Z M14.5055,16.2475 C6.2185,16.2475 1.047,22.104 1.047,27.774 L10.144,28.148 C10.144,26.029 11.5145,23.9115 14.63,23.9115 C17.434,23.9115 18.8045,25.6565 18.8045,28.896 L18.8045,30.142 L13.0725,30.4535 C6.2185,30.765 0.175,33.07 0.175,40.236 C0.175,46.4665 4.412,49.7685 10.8915,49.7685 C14.568,49.7685 17.309,48.3355 19.1165,46.4665 L19.1165,49.0835 L27.9015,49.0835 L27.9015,29.2075 C27.9015,20.7335 23.166,16.2475 14.5055,16.2475 Z" id="Fill-1"></path>
                <polygon id="Fill-2" points="36.6235 49.0835 45.7205 49.0835 45.7205 0.671 36.6235 0.671"></polygon>
                <path d="M56.437,13.5685 L56.437,16.8705 L50.5795,16.8705 L50.5795,24.721 L56.437,24.721 L56.437,49.0835 L65.471,49.0835 L65.471,24.721 L72.9485,24.721 L72.9485,16.8705 L65.471,16.8705 L65.471,13.3195 C65.471,10.266 67.7145,8.21 70.892,8.21 C71.8265,8.21 72.4495,8.2725 73.0105,8.335 L73.0105,0.4835 C72.076,0.3595 71.2035,0.297 69.8325,0.297 C61.733,0.297 56.437,5.468 56.437,13.5685" id="Fill-3"></path>
                <path d="M93.8195,41.9185 C89.147,41.9185 85.907,38.615 85.907,33.0075 C85.907,27.3375 89.147,24.0355 93.8195,24.0355 C98.493,24.0355 101.7335,27.3375 101.7335,33.0075 C101.7335,38.615 98.493,41.9185 93.8195,41.9185 Z M93.8195,16.2475 C83.976,16.2475 76.686,22.852 76.686,33.0075 C76.686,43.1015 83.976,49.7685 93.8195,49.7685 C103.6645,49.7685 110.9545,43.1015 110.9545,33.0075 C110.9545,22.852 103.6645,16.2475 93.8195,16.2475 Z" id="Fill-4"></path>
                <path d="M135.4405,16.2475 C131.079,16.2475 128.2135,17.93 126.7795,20.1725 L126.7795,16.8705 L118.1815,16.8705 L118.1815,49.0835 L127.278,49.0835 L127.278,31.2015 C127.278,27.3375 129.646,24.721 133.2595,24.721 C136.749,24.721 138.9295,27.026 138.9295,31.139 L138.9295,49.0835 L148.0265,49.0835 L148.0265,29.394 C148.0265,21.0445 142.855,16.2475 135.4405,16.2475" id="Fill-5"></path>
                <path d="M170.208,29.519 C166.3445,28.522 163.915,28.2105 163.915,25.968 C163.915,24.223 165.161,23.226 167.5905,23.226 C170.3945,23.226 171.5785,24.846 171.7035,27.151 L180.7375,26.652 C180.177,20.671 175.878,16.2475 167.7155,16.2475 C159.615,16.2475 154.818,20.2355 154.818,26.403 C154.818,33.0075 159.3665,34.441 166.22,36.186 C170.8935,37.307 172.0765,37.931 172.0765,39.862 C172.0765,41.731 170.5195,42.7905 168.0275,42.7905 C164.912,42.7905 163.4785,41.1705 163.354,38.8025 L154.257,39.3005 C154.943,46.03 159.7405,49.7685 167.965,49.7685 C176.376,49.7685 181.174,45.5945 181.174,39.0515 C181.174,33.195 176.6255,31.2015 170.208,29.519" id="Fill-6"></path>
                <path d="M190.1495,42.2915 C188.1555,42.2915 186.5355,43.9735 186.5355,46.03 C186.5355,48.024 188.1555,49.706 190.1495,49.706 C192.2055,49.706 193.888,48.024 193.888,46.03 C193.888,43.9735 192.2055,42.2915 190.1495,42.2915" id="Fill-7"></path>
                <path d="M206.0365,2.291 C204.1055,2.291 202.485,3.8485 202.485,5.842 C202.485,7.7735 204.043,9.332 206.0365,9.332 C207.968,9.332 209.588,7.7735 209.588,5.842 C209.588,3.8485 207.968,2.291 206.0365,2.291" id="Fill-8"></path>
                <polygon id="Fill-9" points="203.295 49.083 208.653 49.083 208.653 17.307 203.295 17.307"></polygon>
            </g>
            <path d="M171.722992,169.27 L199.614992,111.082 L239.802992,194.921 L171.722992,169.27 Z M212.156992,72.896 C209.842992,68.071 204.965992,65 199.614992,65 C194.263992,65 189.386992,68.071 187.073992,72.896 L119.368992,214.138 C116.049992,221.065 118.972992,229.371 125.898992,232.692 C127.838992,233.621 129.884992,234.06 131.900992,234.06 C137.084992,234.06 142.060992,231.15 144.451992,226.162 L159.654992,194.447 L262.414992,233.164 C267.731992,235.168 273.730992,233.736 277.569992,229.549 C281.409992,225.362 282.315992,219.261 279.860992,214.138 L212.156992,72.896 Z" id="A"></path>
        </g>
    </g>
</svg>